<svg width="1667" height="773" viewBox="0 0 1667 773" fill="white" xmlns="http://www.w3.org/2000/svg">
<path d="M163.898 225C163.898 220.182 163.182 215.885 161.75 212.109C160.318 208.203 157.714 204.622 153.938 201.367C150.161 198.112 144.823 194.857 137.922 191.602C131.021 188.216 121.971 184.766 110.773 181.25C98.013 177.083 85.8385 172.396 74.25 167.188C62.7917 161.849 52.5703 155.664 43.5859 148.633C34.6016 141.602 27.5052 133.398 22.2969 124.023C17.2188 114.648 14.6797 103.711 14.6797 91.2109C14.6797 79.1016 17.349 68.1641 22.6875 58.3984C28.026 48.6328 35.513 40.2995 45.1484 33.3984C54.7839 26.3672 66.112 21.0286 79.1328 17.3828C92.1536 13.6068 106.477 11.7188 122.102 11.7188C142.935 11.7188 161.229 15.4297 176.984 22.8516C192.87 30.1432 205.24 40.4297 214.094 53.7109C222.948 66.862 227.375 82.1615 227.375 99.6094H164.094C164.094 91.9271 162.466 85.1562 159.211 79.2969C156.086 73.3073 151.268 68.6198 144.758 65.2344C138.378 61.849 130.37 60.1562 120.734 60.1562C111.359 60.1562 103.482 61.5885 97.1016 64.4531C90.8516 67.1875 86.099 70.9635 82.8438 75.7812C79.7188 80.599 78.1562 85.8724 78.1562 91.6016C78.1562 96.1589 79.3281 100.326 81.6719 104.102C84.1458 107.747 87.6615 111.198 92.2188 114.453C96.9062 117.578 102.635 120.573 109.406 123.438C116.177 126.302 123.924 129.036 132.648 131.641C147.883 136.458 161.359 141.797 173.078 147.656C184.927 153.516 194.888 160.156 202.961 167.578C211.034 175 217.089 183.398 221.125 192.773C225.292 202.148 227.375 212.76 227.375 224.609C227.375 237.24 224.901 248.438 219.953 258.203C215.135 267.969 208.104 276.302 198.859 283.203C189.745 289.974 178.807 295.117 166.047 298.633C153.286 302.148 139.029 303.906 123.273 303.906C108.951 303.906 94.8229 302.083 80.8906 298.438C66.9583 294.661 54.3281 288.932 43 281.25C31.8021 273.568 22.8177 263.802 16.0469 251.953C9.40625 239.974 6.08594 225.781 6.08594 209.375H69.7578C69.7578 217.969 70.9948 225.26 73.4688 231.25C75.9427 237.109 79.4583 241.862 84.0156 245.508C88.7031 249.154 94.3672 251.758 101.008 253.32C107.648 254.883 115.07 255.664 123.273 255.664C132.779 255.664 140.461 254.362 146.32 251.758C152.31 249.023 156.737 245.312 159.602 240.625C162.466 235.938 163.898 230.729 163.898 225ZM350.031 256.445C356.542 256.445 362.206 255.208 367.023 252.734C371.841 250.26 375.552 246.81 378.156 242.383C380.891 237.826 382.258 232.357 382.258 225.977H439.68C439.68 241.341 435.708 254.883 427.766 266.602C419.953 278.32 409.406 287.5 396.125 294.141C382.844 300.651 367.87 303.906 351.203 303.906C334.797 303.906 320.474 301.237 308.234 295.898C295.995 290.43 285.773 282.812 277.57 273.047C269.367 263.281 263.182 251.953 259.016 239.062C254.979 226.042 252.961 211.979 252.961 196.875V191.797C252.961 176.823 254.979 162.826 259.016 149.805C263.182 136.784 269.367 125.391 277.57 115.625C285.773 105.859 295.93 98.3073 308.039 92.9688C320.279 87.5 334.602 84.7656 351.008 84.7656C368.326 84.7656 383.625 88.0859 396.906 94.7266C410.318 101.367 420.799 110.938 428.352 123.438C435.904 135.807 439.68 150.716 439.68 168.164H382.258C382.258 161.393 381.021 155.339 378.547 150C376.203 144.531 372.557 140.234 367.609 137.109C362.792 133.854 356.802 132.227 349.641 132.227C342.219 132.227 336.099 133.854 331.281 137.109C326.594 140.234 323.013 144.596 320.539 150.195C318.065 155.794 316.372 162.174 315.461 169.336C314.549 176.367 314.094 183.854 314.094 191.797V196.875C314.094 204.948 314.549 212.63 315.461 219.922C316.372 227.083 318.065 233.398 320.539 238.867C323.143 244.336 326.789 248.633 331.477 251.758C336.164 254.883 342.349 256.445 350.031 256.445ZM529.523 0V300H468.586V0H529.523ZM521.516 186.914L506.281 187.305C506.281 172.461 508.104 158.854 511.75 146.484C515.526 133.984 520.865 123.112 527.766 113.867C534.667 104.622 542.935 97.4609 552.57 92.3828C562.336 87.3047 573.078 84.7656 584.797 84.7656C595.214 84.7656 604.719 86.263 613.312 89.2578C621.906 92.2526 629.328 97.0052 635.578 103.516C641.828 110.026 646.646 118.555 650.031 129.102C653.417 139.648 655.109 152.474 655.109 167.578V300H593.781V167.188C593.781 158.203 592.479 151.172 589.875 146.094C587.401 141.016 583.755 137.435 578.938 135.352C574.25 133.268 568.521 132.227 561.75 132.227C553.807 132.227 547.232 133.659 542.023 136.523C536.815 139.258 532.714 143.099 529.719 148.047C526.724 152.995 524.576 158.789 523.273 165.43C522.102 172.07 521.516 179.232 521.516 186.914ZM759.211 0V300H698.078V0H759.211ZM794.367 196.484V192.383C794.367 176.888 796.581 162.63 801.008 149.609C805.435 136.458 811.945 125.065 820.539 115.43C829.133 105.794 839.68 98.3073 852.18 92.9688C864.68 87.5 879.003 84.7656 895.148 84.7656C911.555 84.7656 926.008 87.5 938.508 92.9688C951.138 98.3073 961.75 105.794 970.344 115.43C978.938 125.065 985.448 136.458 989.875 149.609C994.302 162.63 996.516 176.888 996.516 192.383V196.484C996.516 211.849 994.302 226.107 989.875 239.258C985.448 252.279 978.938 263.672 970.344 273.438C961.75 283.073 951.203 290.56 938.703 295.898C926.203 301.237 911.815 303.906 895.539 303.906C879.393 303.906 865.005 301.237 852.375 295.898C839.745 290.56 829.133 283.073 820.539 273.438C811.945 263.672 805.435 252.279 801.008 239.258C796.581 226.107 794.367 211.849 794.367 196.484ZM855.5 192.383V196.484C855.5 204.818 856.151 212.63 857.453 219.922C858.885 227.214 861.164 233.594 864.289 239.062C867.414 244.531 871.516 248.828 876.594 251.953C881.802 254.948 888.117 256.445 895.539 256.445C902.961 256.445 909.211 254.948 914.289 251.953C919.367 248.828 923.469 244.531 926.594 239.062C929.719 233.594 931.932 227.214 933.234 219.922C934.667 212.63 935.383 204.818 935.383 196.484V192.383C935.383 184.18 934.667 176.497 933.234 169.336C931.932 162.044 929.719 155.599 926.594 150C923.469 144.401 919.302 140.039 914.094 136.914C909.016 133.789 902.701 132.227 895.148 132.227C887.857 132.227 881.672 133.789 876.594 136.914C871.516 140.039 867.414 144.401 864.289 150C861.164 155.599 858.885 162.044 857.453 169.336C856.151 176.497 855.5 184.18 855.5 192.383ZM1141.05 241.211C1141.05 237.305 1139.81 233.854 1137.34 230.859C1134.99 227.865 1130.7 225.13 1124.45 222.656C1118.33 220.182 1109.67 217.708 1098.47 215.234C1087.92 213.021 1078.09 210.156 1068.98 206.641C1059.86 202.995 1051.92 198.633 1045.15 193.555C1038.38 188.346 1033.1 182.227 1029.33 175.195C1025.55 168.034 1023.66 159.896 1023.66 150.781C1023.66 141.927 1025.55 133.529 1029.33 125.586C1033.23 117.643 1038.83 110.612 1046.12 104.492C1053.55 98.3724 1062.53 93.5547 1073.08 90.0391C1083.76 86.5234 1095.86 84.7656 1109.41 84.7656C1128.03 84.7656 1144.11 87.6953 1157.65 93.5547C1171.19 99.2839 1181.61 107.357 1188.9 117.773C1196.19 128.06 1199.84 139.844 1199.84 153.125H1138.9C1138.9 147.656 1137.86 142.904 1135.77 138.867C1133.69 134.831 1130.5 131.706 1126.2 129.492C1121.91 127.148 1116.24 125.977 1109.21 125.977C1103.74 125.977 1098.92 126.953 1094.76 128.906C1090.72 130.729 1087.53 133.268 1085.19 136.523C1082.97 139.779 1081.87 143.555 1081.87 147.852C1081.87 150.846 1082.52 153.581 1083.82 156.055C1085.25 158.398 1087.4 160.612 1090.27 162.695C1093.26 164.648 1097.1 166.406 1101.79 167.969C1106.61 169.531 1112.47 171.029 1119.37 172.461C1134.08 175.195 1147.49 179.036 1159.6 183.984C1171.84 188.932 1181.61 195.768 1188.9 204.492C1196.32 213.216 1200.03 224.74 1200.03 239.062C1200.03 248.438 1197.88 257.031 1193.59 264.844C1189.42 272.656 1183.36 279.492 1175.42 285.352C1167.48 291.211 1157.97 295.768 1146.91 299.023C1135.84 302.279 1123.34 303.906 1109.41 303.906C1089.48 303.906 1072.62 300.326 1058.82 293.164C1045.02 286.003 1034.6 277.018 1027.57 266.211C1020.67 255.273 1017.22 244.076 1017.22 232.617H1074.45C1074.71 239.648 1076.46 245.378 1079.72 249.805C1083.1 254.232 1087.47 257.487 1092.8 259.57C1098.14 261.523 1104.13 262.5 1110.77 262.5C1117.41 262.5 1122.95 261.589 1127.38 259.766C1131.8 257.943 1135.19 255.469 1137.53 252.344C1139.88 249.089 1141.05 245.378 1141.05 241.211ZM1346.52 241.211C1346.52 237.305 1345.28 233.854 1342.8 230.859C1340.46 227.865 1336.16 225.13 1329.91 222.656C1323.79 220.182 1315.14 217.708 1303.94 215.234C1293.39 213.021 1283.56 210.156 1274.45 206.641C1265.33 202.995 1257.39 198.633 1250.62 193.555C1243.85 188.346 1238.57 182.227 1234.8 175.195C1231.02 168.034 1229.13 159.896 1229.13 150.781C1229.13 141.927 1231.02 133.529 1234.8 125.586C1238.7 117.643 1244.3 110.612 1251.59 104.492C1259.02 98.3724 1268 93.5547 1278.55 90.0391C1289.22 86.5234 1301.33 84.7656 1314.88 84.7656C1333.49 84.7656 1349.58 87.6953 1363.12 93.5547C1376.66 99.2839 1387.08 107.357 1394.37 117.773C1401.66 128.06 1405.3 139.844 1405.3 153.125H1344.37C1344.37 147.656 1343.33 142.904 1341.24 138.867C1339.16 134.831 1335.97 131.706 1331.67 129.492C1327.38 127.148 1321.71 125.977 1314.68 125.977C1309.21 125.977 1304.39 126.953 1300.23 128.906C1296.19 130.729 1293 133.268 1290.66 136.523C1288.44 139.779 1287.34 143.555 1287.34 147.852C1287.34 150.846 1287.99 153.581 1289.29 156.055C1290.72 158.398 1292.87 160.612 1295.73 162.695C1298.73 164.648 1302.57 166.406 1307.26 167.969C1312.08 169.531 1317.93 171.029 1324.84 172.461C1339.55 175.195 1352.96 179.036 1365.07 183.984C1377.31 188.932 1387.08 195.768 1394.37 204.492C1401.79 213.216 1405.5 224.74 1405.5 239.062C1405.5 248.438 1403.35 257.031 1399.05 264.844C1394.89 272.656 1388.83 279.492 1380.89 285.352C1372.95 291.211 1363.44 295.768 1352.38 299.023C1341.31 302.279 1328.81 303.906 1314.88 303.906C1294.95 303.906 1278.09 300.326 1264.29 293.164C1250.49 286.003 1240.07 277.018 1233.04 266.211C1226.14 255.273 1222.69 244.076 1222.69 232.617H1279.91C1280.17 239.648 1281.93 245.378 1285.19 249.805C1288.57 254.232 1292.93 257.487 1298.27 259.57C1303.61 261.523 1309.6 262.5 1316.24 262.5C1322.88 262.5 1328.42 261.589 1332.84 259.766C1337.27 257.943 1340.66 255.469 1343 252.344C1345.34 249.089 1346.52 245.378 1346.52 241.211ZM148.859 484.625V769H85.3828V484.625H148.859ZM235.383 484.625V534.039H0.617188V484.625H235.383ZM311.555 606.891V769H250.617V557.672H307.844L311.555 606.891ZM374.641 556.109L373.664 612.945C371.06 612.555 367.674 612.229 363.508 611.969C359.341 611.578 355.76 611.383 352.766 611.383C344.953 611.383 338.182 612.359 332.453 614.312C326.854 616.135 322.167 618.87 318.391 622.516C314.745 626.161 312.01 630.719 310.188 636.188C308.365 641.526 307.453 647.711 307.453 654.742L295.93 649.078C295.93 635.146 297.297 622.385 300.031 610.797C302.766 599.208 306.737 589.182 311.945 580.719C317.154 572.125 323.534 565.484 331.086 560.797C338.638 556.109 347.232 553.766 356.867 553.766C359.992 553.766 363.182 553.961 366.438 554.352C369.693 554.742 372.427 555.328 374.641 556.109ZM505.305 718.609V627.984C505.305 621.604 504.328 616.135 502.375 611.578C500.422 607.021 497.362 603.44 493.195 600.836C489.029 598.232 483.625 596.93 476.984 596.93C471.385 596.93 466.503 597.906 462.336 599.859C458.299 601.812 455.174 604.612 452.961 608.258C450.878 611.904 449.836 616.396 449.836 621.734H388.898C388.898 612.229 391.047 603.375 395.344 595.172C399.641 586.969 405.76 579.742 413.703 573.492C421.776 567.242 431.411 562.424 442.609 559.039C453.807 555.523 466.372 553.766 480.305 553.766C496.841 553.766 511.555 556.565 524.445 562.164C537.466 567.633 547.753 575.901 555.305 586.969C562.857 597.906 566.633 611.708 566.633 628.375V716.852C566.633 729.612 567.349 739.638 568.781 746.93C570.344 754.091 572.557 760.341 575.422 765.68V769H513.898C511.034 762.88 508.885 755.328 507.453 746.344C506.021 737.229 505.305 727.984 505.305 718.609ZM512.922 640.094L513.312 673.688H483.039C476.268 673.688 470.409 674.534 465.461 676.227C460.643 677.919 456.737 680.263 453.742 683.258C450.747 686.122 448.534 689.508 447.102 693.414C445.799 697.19 445.148 701.357 445.148 705.914C445.148 710.211 446.19 714.117 448.273 717.633C450.357 721.018 453.221 723.688 456.867 725.641C460.513 727.594 464.745 728.57 469.562 728.57C477.505 728.57 484.276 727.008 489.875 723.883C495.604 720.758 500.031 716.982 503.156 712.555C506.281 707.997 507.844 703.766 507.844 699.859L522.492 725.25C520.148 730.458 517.284 735.862 513.898 741.461C510.513 746.93 506.216 752.073 501.008 756.891C495.799 761.578 489.484 765.419 482.062 768.414C474.771 771.409 465.982 772.906 455.695 772.906C442.414 772.906 430.37 770.237 419.562 764.898C408.755 759.43 400.096 751.943 393.586 742.438C387.206 732.932 384.016 721.995 384.016 709.625C384.016 698.557 386.034 688.727 390.07 680.133C394.107 671.539 400.161 664.247 408.234 658.258C416.438 652.268 426.724 647.776 439.094 644.781C451.464 641.656 465.917 640.094 482.453 640.094H512.922ZM730.695 718.023V557.672H792.023V769H734.602L730.695 718.023ZM737.141 674.859L753.938 674.469C753.938 688.661 752.245 701.747 748.859 713.727C745.604 725.706 740.656 736.122 734.016 744.977C727.505 753.831 719.367 760.732 709.602 765.68C699.966 770.497 688.703 772.906 675.812 772.906C665.396 772.906 655.826 771.474 647.102 768.609C638.508 765.615 631.086 760.992 624.836 754.742C618.586 748.362 613.768 740.224 610.383 730.328C606.997 720.302 605.305 708.323 605.305 694.391V557.672H666.242V694.781C666.242 700.25 666.893 704.938 668.195 708.844C669.628 712.62 671.516 715.745 673.859 718.219C676.333 720.693 679.328 722.516 682.844 723.688C686.49 724.859 690.461 725.445 694.758 725.445C705.565 725.445 714.029 723.232 720.148 718.805C726.398 714.247 730.76 708.193 733.234 700.641C735.839 692.958 737.141 684.365 737.141 674.859ZM891.438 602.789V769H830.305V557.672H887.727L891.438 602.789ZM883.43 655.914L868.195 656.305C868.195 640.419 870.148 626.161 874.055 613.531C877.961 600.901 883.495 590.159 890.656 581.305C897.948 572.32 906.607 565.484 916.633 560.797C926.789 556.109 937.987 553.766 950.227 553.766C960.122 553.766 969.172 555.198 977.375 558.062C985.578 560.927 992.609 565.549 998.469 571.93C1004.46 578.18 1009.02 586.513 1012.14 596.93C1015.27 607.216 1016.83 619.911 1016.83 635.016V769H955.5V634.82C955.5 625.966 954.263 619.13 951.789 614.312C949.315 609.495 945.669 606.109 940.852 604.156C936.164 602.203 930.435 601.227 923.664 601.227C916.503 601.227 910.383 602.659 905.305 605.523C900.227 608.258 896.06 612.099 892.805 617.047C889.549 621.995 887.141 627.789 885.578 634.43C884.146 641.07 883.43 648.232 883.43 655.914ZM1169.17 710.211C1169.17 706.305 1167.93 702.854 1165.46 699.859C1163.12 696.865 1158.82 694.13 1152.57 691.656C1146.45 689.182 1137.79 686.708 1126.59 684.234C1116.05 682.021 1106.22 679.156 1097.1 675.641C1087.99 671.995 1080.04 667.633 1073.27 662.555C1066.5 657.346 1061.23 651.227 1057.45 644.195C1053.68 637.034 1051.79 628.896 1051.79 619.781C1051.79 610.927 1053.68 602.529 1057.45 594.586C1061.36 586.643 1066.96 579.612 1074.25 573.492C1081.67 567.372 1090.66 562.555 1101.2 559.039C1111.88 555.523 1123.99 553.766 1137.53 553.766C1156.15 553.766 1172.23 556.695 1185.77 562.555C1199.32 568.284 1209.73 576.357 1217.02 586.773C1224.32 597.06 1227.96 608.844 1227.96 622.125H1167.02C1167.02 616.656 1165.98 611.904 1163.9 607.867C1161.82 603.831 1158.62 600.706 1154.33 598.492C1150.03 596.148 1144.37 594.977 1137.34 594.977C1131.87 594.977 1127.05 595.953 1122.88 597.906C1118.85 599.729 1115.66 602.268 1113.31 605.523C1111.1 608.779 1109.99 612.555 1109.99 616.852C1109.99 619.846 1110.64 622.581 1111.95 625.055C1113.38 627.398 1115.53 629.612 1118.39 631.695C1121.39 633.648 1125.23 635.406 1129.91 636.969C1134.73 638.531 1140.59 640.029 1147.49 641.461C1162.21 644.195 1175.62 648.036 1187.73 652.984C1199.97 657.932 1209.73 664.768 1217.02 673.492C1224.45 682.216 1228.16 693.74 1228.16 708.062C1228.16 717.438 1226.01 726.031 1221.71 733.844C1217.54 741.656 1211.49 748.492 1203.55 754.352C1195.6 760.211 1186.1 764.768 1175.03 768.023C1163.96 771.279 1151.46 772.906 1137.53 772.906C1117.61 772.906 1100.75 769.326 1086.95 762.164C1073.14 755.003 1062.73 746.018 1055.7 735.211C1048.79 724.273 1045.34 713.076 1045.34 701.617H1102.57C1102.83 708.648 1104.59 714.378 1107.84 718.805C1111.23 723.232 1115.59 726.487 1120.93 728.57C1126.27 730.523 1132.26 731.5 1138.9 731.5C1145.54 731.5 1151.07 730.589 1155.5 728.766C1159.93 726.943 1163.31 724.469 1165.66 721.344C1168 718.089 1169.17 714.378 1169.17 710.211ZM1361.75 772.906C1344.95 772.906 1329.91 770.237 1316.63 764.898C1303.35 759.56 1292.09 752.203 1282.84 742.828C1273.73 733.323 1266.76 722.385 1261.95 710.016C1257.13 697.646 1254.72 684.43 1254.72 670.367V662.945C1254.72 647.19 1256.93 632.672 1261.36 619.391C1265.79 606.109 1272.23 594.586 1280.7 584.82C1289.29 574.924 1299.84 567.307 1312.34 561.969C1324.84 556.5 1339.09 553.766 1355.11 553.766C1370.08 553.766 1383.43 556.24 1395.15 561.188C1406.87 566.005 1416.76 572.971 1424.84 582.086C1432.91 591.07 1439.03 601.943 1443.2 614.703C1447.49 627.333 1449.64 641.526 1449.64 657.281V682.281H1279.33V643.023H1389.88V638.336C1389.88 630.914 1388.51 624.404 1385.77 618.805C1383.17 613.206 1379.26 608.909 1374.05 605.914C1368.98 602.789 1362.53 601.227 1354.72 601.227C1347.3 601.227 1341.11 602.789 1336.16 605.914C1331.22 609.039 1327.24 613.466 1324.25 619.195C1321.39 624.794 1319.3 631.37 1318 638.922C1316.7 646.344 1316.05 654.352 1316.05 662.945V670.367C1316.05 678.57 1317.15 686.057 1319.37 692.828C1321.58 699.599 1324.84 705.393 1329.13 710.211C1333.43 715.029 1338.64 718.805 1344.76 721.539C1350.88 724.273 1357.84 725.641 1365.66 725.641C1375.29 725.641 1384.47 723.818 1393.2 720.172C1401.92 716.396 1409.47 710.536 1415.85 702.594L1444.37 735.211C1440.07 741.461 1434.02 747.516 1426.2 753.375C1418.52 759.104 1409.28 763.792 1398.47 767.438C1387.66 771.083 1375.42 772.906 1361.75 772.906ZM1578.94 772.906C1562.14 772.906 1547.1 770.237 1533.82 764.898C1520.54 759.56 1509.28 752.203 1500.03 742.828C1490.92 733.323 1483.95 722.385 1479.13 710.016C1474.32 697.646 1471.91 684.43 1471.91 670.367V662.945C1471.91 647.19 1474.12 632.672 1478.55 619.391C1482.97 606.109 1489.42 594.586 1497.88 584.82C1506.48 574.924 1517.02 567.307 1529.52 561.969C1542.02 556.5 1556.28 553.766 1572.3 553.766C1587.27 553.766 1600.62 556.24 1612.34 561.188C1624.05 566.005 1633.95 572.971 1642.02 582.086C1650.1 591.07 1656.22 601.943 1660.38 614.703C1664.68 627.333 1666.83 641.526 1666.83 657.281V682.281H1496.52V643.023H1607.06V638.336C1607.06 630.914 1605.7 624.404 1602.96 618.805C1600.36 613.206 1596.45 608.909 1591.24 605.914C1586.16 602.789 1579.72 601.227 1571.91 601.227C1564.48 601.227 1558.3 602.789 1553.35 605.914C1548.4 609.039 1544.43 613.466 1541.44 619.195C1538.57 624.794 1536.49 631.37 1535.19 638.922C1533.89 646.344 1533.23 654.352 1533.23 662.945V670.367C1533.23 678.57 1534.34 686.057 1536.55 692.828C1538.77 699.599 1542.02 705.393 1546.32 710.211C1550.62 715.029 1555.83 718.805 1561.95 721.539C1568.07 724.273 1575.03 725.641 1582.84 725.641C1592.48 725.641 1601.66 723.818 1610.38 720.172C1619.11 716.396 1626.66 710.536 1633.04 702.594L1661.55 735.211C1657.26 741.461 1651.2 747.516 1643.39 753.375C1635.71 759.104 1626.46 763.792 1615.66 767.438C1604.85 771.083 1592.61 772.906 1578.94 772.906Z" fill="none"/>
</svg>
