<svg xmlns="http://www.w3.org/2000/svg" version="1.1" xmlns:xlink="http://www.w3.org/1999/xlink" xmlns:svgjs="http://svgjs.dev/svgjs" viewBox="0 0 1422 800" opacity="1"><g fill="none" stroke-width="1.5" stroke="#3d5a80" stroke-linecap="round"><path d="M1369.63 247.04C1323.67 279.9 1121.8 304.23 986.38 322.54 1048.98 343.74 1228.26 364.83 1338.1 392.26 1280.35 431.29 1102.34 486.06 944.7 560.75 902.22 648.15 980.21 748.33 1098.68 848.02 1190.24 926.53 1195.28 971.45 1125.5 966.88 1005.56 917.33 881.02 830.99 780 735.84 698.76 674.42 647.41 669.06 613 732.68 587.82 847.98 562.41 973.59 529.55 1056.65 496.69 1061.47 457.94 985.14 421.14 863.62 393.58 743.14 385.15 666.15 409.45 651.44 453.51 698.18 523.94 778.82 593.23 860.48 612.36 924.96 560.14 947.15 425.52 926.2 263.98 869.21 147.02 788 155.28 699.29 278.71 606.57 427.25 524.49 460.92 456.79 326.98 396.81 129.01 349.01 53.72 309.53 176.46 273.16 371.67 239.53 417.63 206.67 253.12 173.81 73.76 143.27 75.39 117.66 340.06 89.18 236.08 110.95 123.18 167 223.65 205.07 393.72 239.11 532.74 253.03 588.39 230.92 554.94 169.78 480.09 71.09 393.33 -44.77 343.43 -154.89 337.27 -225.72 363.15 -235.12 413.6 -176.84 468.74 -69.06 530.84 39.77 581.57 109.46 614.44 104.67 647.3 21.62 660.74 -97.32 660.61 -199.95 667.45 -250.9 676.77 -226.86 707.83 -141.35 770.92 -22.11 874.93 93.69 1012.33 177.46 1137.84 216.26 1218.48 210.3 1205.92 174.86 1109.99 118.24 978.88 65.23 912.6 28.47 984.44 4.43 1164.41 3.78 1324.27 21.7 1328.84 51.22 1172.6 89.9 1008.08 130.67 1019.07 174.34 1205.07 214.17 1369.6 247.03Q1369.63 247.04 1369.63 247.04" opacity="0.88"></path><path d="M1335.63 206.09C1300.36 236.6 1118.12 267.16 966.41 299.52 975.65 334.61 1122.52 376.47 1267.29 428.8 1296.53 488.56 1184.26 562.01 1015.85 647.34 885.81 732.64 859.3 816.7 920.07 885.66 1028.12 926.18 1113.99 930.28 1144.98 892.07 1121.28 825.5 1051.75 740.84 965.26 664.32 866.68 628.42 781.33 645.8 715.6 720.28 653.35 832.52 607.84 947.51 577.32 1022.65 546.81 1029.98 532.74 965.82 537.45 857.38 545.63 740.77 575.47 652.35 621.17 613.26 654.78 629.29 674.06 685.67 650.73 758.35 572.71 832.88 443.03 882.65 295 899.09 194.23 884.89 184.56 840.94 282.83 778.95 419.46 703.23 504.36 626.26 452.76 555.66 285.63 485.91 121.38 426.55 100.37 377.91 240.31 330.88 416.36 292.24 451.63 261.72 214.33 220.74 318.02 192.76 497.72 211.56 362.31 242.64 223.62 299.73 422.76 274.02 559.65 217.6 632.66 131.65 641.32 25.35 598.05 -79.09 538.66 -162.84 490.87 -201.26 450.15 -184.54 436.99 -113.5 445.75 -8.68 461.76 87.98 487.93 145.97 518.44 138.67 548.95 63.54 582.36 -45.26 623.9 -145.73 672.68 -208.44 741.33 -208.47 834.94 -150.21 935.6 -51.32 1045.24 60.69 1135.56 159.04 1173.95 229.02 1144.76 261.11 1047.88 260.58 939.87 231.62 873.74 191.36 913.04 153.09 1140.76 103.19 1163.64 92.08 957.27 121.36 1003.77 146.55 1186.63 175.57 1335.6 206.08Q1335.63 206.09 1335.63 206.09" opacity="0.88"></path><path d="M1301.63 254.81C1276.07 282.98 1115.24 318.22 956.3 360.78 918.07 404.83 1017.83 458.51 1166 521.93 1261.4 586.98 1235.12 659.5 1112.54 733.85 956.17 798.81 843.87 851.99 808.61 882.45 848.1 885.7 926.25 857.17 1001.34 798.62 1060.85 728.43 1079.37 656.03 1063.53 603.19 1023.41 592.32 969.98 628.72 917.92 710.07 861.48 817.11 816.89 921.18 788.73 988.65 760.56 998.06 750.15 945.35 753.46 850.65 752.41 741.34 754.59 647.2 745.91 589.14 712.93 576.48 648.03 604.34 545.11 657.46 426.61 726.18 308.02 787.06 231.61 827.98 229.95 849.34 308.85 843.56 435.9 816.16 529.15 772.04 530.17 717.63 414.13 661 245.31 599.85 129.52 543.62 156.88 495.72 304.95 447.66 460.07 408.89 485.63 380.72 266.97 344.44 290.14 328.54 508.65 343.38 525.63 351.19 432.17 359.22 305.02 359.93 214.03 343.92 215.19 309.26 297.03 250.99 428 173.16 555.7 78.88 647.63 -19.16 702.95 -128.17 652.69 -86.27 630.71 51.2 621.09 135.04 629.99 182.05 658.14 172.67 686.31 105.21 732.41 6.85 795.15 -89.32 857.81 -159.81 933.9 -180.19 1012.92 -148.69 1074 -75.2 1111.16 22.44 1103.89 121.97 1055.38 209.85 968.12 271.78 874.05 305.44 829.11 311.9 861.33 299.16 981.63 277.62 1138.11 246.67 1256.84 220.54 1260.54 204.3 1070.71 188.47 1080.07 216.76 1301.6 254.8Q1301.63 254.81 1301.63 254.81" opacity="0.40"></path><path d="M1267.63 370.68C1250.77 396.5 1112.39 431.98 954.78 476.02 878.63 520.05 924.82 572.13 1048.51 629.62 1176.21 683.99 1227.54 738.42 1183.05 786.32 1065.27 820.97 928.1 838.81 820.97 833.47 764.96 808.18 766.3 760.31 803.37 696.18 865.07 634.33 920.73 581.76 956.88 554.56 982.44 566.3 985.59 617.3 973.03 701.62 954.97 801.6 930.8 894.59 904.98 954.65 879.16 965.7 852.92 923.64 822.28 842.94 786.15 743.72 736.03 649.28 665.73 578.57 584.83 541.87 486.64 541.12 385.15 568.56 308.29 619.02 269.88 674.86 292.05 723.95 418.62 777.49 543.16 770.81 359.29 725.97 216.67 686.55 155.79 645.6 221.97 607.52 369.62 568.08 502.77 534.45 519.63 508.63 321.04 474.42 263.92 443.15 484.05 434.82 567.74 422.78 549.12 404.51 458.06 374.6 341.12 330.95 263.7 270.95 252.68 195.04 305.79 112.11 402.71 25.66 510.14 -51.68 615.82 -106.01 695.64 -128.41 748.36 -110.65 781.77 -58.87 799.69 20.86 813.36 110.11 821.8 180.85 836.71 217.7 862.53 206.67 888.35 146.62 923.85 58.86 964.1 -31.16 999.12 -105.52 1028.18 -141.83 1039.52 -134.65 1031.56 -88.54 994.27 -12.81 928.39 75.92 860.75 166.92 800.89 245.41 781.6 304.55 826.44 343.73 934.46 362.96 1078.28 368.1 1196.24 359.99 1238.03 348.09 1173.3 338.46 979.45 323.16 1066.38 337.38 1267.6 370.67Q1267.63 370.68 1267.63 370.68" opacity="0.39"></path><path d="M1233.63 500.1C1224.37 523.57 1108.78 554.43 960.07 590.97 857.97 626.47 852.47 665.39 932.46 704.11 1104.91 751.36 1097.54 780.54 933.57 744.62 822.91 704.38 746.08 652.13 707.3 595.82 702.43 551.12 720.06 522.26 744.11 519.72 776.84 550.05 799.73 610.8 807.8 694.43 815.17 785.82 807.23 867.73 783.76 920.65 760.29 932.91 722.4 900.56 670.75 833.73 618.42 746.71 552.83 656.81 479.43 580.04 386.56 513.02 351.28 544.84 452.74 605.88 537.54 651.13 606.52 687.1 622.55 710.31 565.72 726.08 446.44 728.34 305.9 719.68 208.7 705.26 200.85 684.41 293.89 660.57 433.53 635.09 544.37 609.77 553.63 586.3 449.63 562.83 302.7 542.32 201.94 523.53 198.81 503.1 295.07 481.25 435.36 454.99 557.87 422.98 610.83 382.06 587.4 330.12 504.34 270.73 407.21 201.07 334.09 125.05 298.48 52.41 313.47 -13.74 365.42 -63.15 444.57 -88.15 530.21 -83.47 607.89 -46.53 683.01 13.03 742.06 89.56 786.2 167.52 826.85 225.3 857.93 252.9 881.41 240.67 904.88 187.76 919.64 110.6 923.26 28.27 923.38 -46.3 907.04 -93.7 872.6 -106.84 835.61 -87.1 788.61 -37.19 745.63 31.94 729.85 112.69 748.54 192.77 814.9 263.77 918.77 324.6 1043.73 370.04 1151.25 401.52 1199.14 421.14 1167.25 432.19 1061.96 439.42 938.88 441.37 855.95 445.16 868.11 453.92 977.89 461.65 1129.57 476.62 1233.6 500.09Q1233.63 500.1 1233.63 500.1" opacity="0.74"></path><path d="M1199.63 583.23C1196.84 604.35 1103.63 627.58 970.03 651.49 854.92 674.08 806.7 694.8 835.21 710.74 924.51 721.92 1029.65 724.36 1109.58 715.41 1145.05 699.21 1123.02 670.67 1057.74 631.17 963.32 590.5 865.1 547.08 780.42 508.26 710.19 485.35 663.85 480.33 636.31 498.91 622.5 542.74 616.07 608.31 609.18 688 605.5 769.6 594.6 840.58 573.47 886.65 552.35 899.67 522 876.02 485.84 822.56 452.9 749.08 420.89 667.74 398.09 591.16 389.03 527.11 400.58 482.85 438.25 459.78 490.37 457.93 558.26 472.17 625 495.95 662.58 529.29 659.57 561.92 602.1 589.08 500.17 615.35 376.09 632.23 271.31 639.38 227.31 643.52 263.51 639.32 370.47 628.24 495.91 616 584.84 598.94 587.63 577.81 497.71 556.69 366.14 532.51 259.27 504.9 221.31 476.14 270.27 441.92 378.96 401.16 506.95 357.41 606.27 305.73 651.1 246.91 636.43 187.19 578.19 124.23 504.07 63.21 402.19 -7.9 377.73 -33.96 436.49 27.26 490.94 88.35 544.2 157.66 589.38 222.99 635.74 268.3 670.54 287.67 691.67 274.65 712.8 228.58 719.25 161.88 712.73 88.43 699.98 -9.87 669.96 -56.1 698.6 0.78 751.25 61.59 832.86 130.06 936.78 198.42 1038.6 265.6 1121.9 324.47 1158.58 373.23 1135.77 414.74 1055.41 447.09 942.9 472.52 849.68 493.18 812.73 510.89 858.8 528.14 973.81 544.08 1109.66 562.09 1199.6 583.22Q1199.63 583.23 1199.63 583.23" opacity="0.47"></path><path d="M1165.63 581.62C1168.13 600.4 1096.2 615.95 982.24 627.61 828.04 640.89 848.28 630.74 972.72 602.63 1049.74 578.97 1092.82 548.53 1097.33 514.25 1067.42 484.87 1010.87 459.05 942.28 442.33 864.78 441.47 793.29 457.07 733.5 491.37 678.39 543.07 635.77 608.8 603.55 681.79 573.86 752.79 550.31 813.11 531.53 852.65 512.75 865.98 499.63 849.94 493.91 808.98 490.72 749.61 499.18 679.78 521.75 608.86 549 542.5 589.56 487.72 638.12 447.69 677.77 423.06 707.36 413.09 712.66 414.45 683.54 426.97 618.2 444.27 521.62 462.08 369.22 492.05 307.68 524.16 449.3 521.85 556 517.41 624.13 505.87 621.63 487.09 545.18 468.31 430.62 443.18 325.02 412.21 262.61 380.87 267.72 343.18 332.84 299.82 437.06 256.35 547.07 208.23 634.46 157.92 685.51 111.17 693.38 66.91 667.89 29.78 615.93 3.82 557.91 -8.47 507.61 -3.39 463.09 17.07 437.48 55.01 429.47 107.61 431.3 164.77 444.5 223.91 463.31 276.03 485.12 309.74 506.8 321.98 525.58 308.65 544.36 269.11 559.35 212.6 572.95 148.84 589.55 83.1 610.5 28.05 641.21 -9.87 681.75 -30.41 738.28 -29.17 811.74 -8.76 890.97 27.5 975.95 75.59 1052.54 129.58 1102.66 188.46 1117.06 245.87 1085.57 298.46 1017.75 349.05 924.58 392.91 834.11 429.92 782.75 464.24 788.3 493.27 857.93 517.96 970.76 541.71 1089.13 562.83 1165.6 581.61Q1165.63 581.62 1165.63 581.62" opacity="0.84"></path><path d="M1131.63 496.02C1085.67 528.88 885.43 536.46 744.46 518.95 768.7 499.87 901.61 459.69 1011.05 415.74 1051.11 400.77 1000.52 421.73 918.88 495.38 817.65 609.7 742.14 735.59 709.28 818.65 676.42 823.47 689.31 746.3 733.6 629.6 758.29 509.52 757.59 421.42 674.46 374.91 438.08 369.89 516.21 392.01 655.63 356.09 491.12 323.23 317.89 266.73 312.79 196.22 466.75 132.4 645.01 71.63 734.91 38.32 723.62 41.77 658.8 95.01 608.26 191.01 559.43 283.62 553.6 347.47 586.47 342.65 619.31 259.59 687.74 147.02 793.51 56.78 901 7.22 1017.11 21.11 1071.5 79.15 1024.68 166.17 881.29 257.63 751.4 333.66 780.55 408.12 967.07 463.15 1131.6 496.01Q1131.63 496.02 1131.63 496.02" opacity="0.35"></path><path d="M1097.63 366.01C1072.08 394.18 912.85 399.04 756.7 385.83 695.5 376.77 745.94 360.6 839.27 353.21 938.86 372.62 984.91 423.2 982.35 508.38 955.72 612.89 917.29 717.18 889.13 784.65 860.96 794.06 845.72 740.31 823.53 649.59 777.28 543.9 687.28 449.45 550.78 380.99 420.52 335.42 340.2 310.99 380.76 295.34 516.27 287.82 664.08 273.56 689.63 245.39 556.01 217.23 392.25 177.82 329.37 136.53 395.74 103.37 542.34 83.84 677.22 92.49 768.83 124.03 797.81 188.61 797.73 273.65 776.81 343.73 771.63 386.06 799.79 376.65 827.94 309.18 886.79 216.31 956.52 132.43 1005.43 67.9 1020.42 47.2 965.75 64.71 867.79 109.01 751.06 169.14 705.3 227.02 788.8 289.03 963.96 337.84 1097.6 366Q1097.63 366.01 1097.63 366.01" opacity="0.82"></path><path d="M1063.63 251.72C1054.37 275.19 939.93 286.12 798.06 289.68 689.03 298.66 654.19 310.82 677.86 335.77 743.67 378.75 806.86 443.72 842.76 527.14 872.92 615.57 874.39 697.74 850.92 750.65 827.45 762.91 781.26 729.36 710.42 665.11 633.84 582.44 534.03 497.9 437.45 425.59 383.01 362.54 392.96 315.64 484.78 281.88 609.44 253.79 714.37 229.66 723.63 206.19 619.63 182.72 478.55 162.12 385.59 149.54 372.29 142.63 442.66 152.89 547.84 185.18 664.83 226.72 754.79 286.36 811.45 351.83 853.55 398.88 880.95 422.91 904.42 410.65 927.89 357.74 945.22 285.08 943.8 213.86 927.83 147.64 874.52 107.56 788.29 95.35 713.86 101.16 668.37 125.64 698.85 157.33 808.99 194.45 959.58 228.24 1063.6 251.71Q1063.63 251.72 1063.63 251.72" opacity="0.60"></path><path d="M1029.63 206C1032.13 224.78 960.67 243.15 853.64 263.24 741.29 287.07 658.69 318.96 615.94 361.83 607.12 413.14 619.89 477.1 633.79 548.03 654.99 616.48 660.2 677.11 641.42 716.65 622.64 729.98 581.65 712.68 527.91 672.76 481.46 616.72 439.39 553.13 423.61 492.51 441.74 432.12 504.42 380.8 603.01 341.23 696.28 303.85 760.13 275.39 757.63 256.62 681.17 237.84 571.48 230.52 476.33 235.35 414.71 242.38 409.38 264.39 446.34 300.17 513.18 336.18 587.34 379.86 648.91 422.13 710.99 448.3 753.49 457.98 772.27 444.65 791.04 405.11 784.32 352.09 754.79 297.41 725.76 240.24 680.91 196.19 638.68 169.5 626.33 151.23 651.57 148.65 726.93 157.36 835.83 169.8 953.13 187.21 1029.6 205.99Q1029.63 206 1029.63 206" opacity="0.71"></path><path d="M995.63 249.99C970.08 278.16 814.05 336.12 678.08 419.6 583.24 510.44 545.26 615.18 517.09 682.65 488.92 692.06 475.91 636.14 533.83 560.3 632.88 472.09 766.08 401.51 791.63 373.35 658 345.18 507.07 364.76 454.14 416.05 473.55 454.97 536.94 488.06 565.11 478.65 593.27 411.18 580.88 329.27 598.39 275.35 688.23 228.79 862 221.82 995.63 249.99Q995.63 249.99 995.63 249.99" opacity="0.51"></path><path d="M961.63 363.36C891.72 400.91 667.68 549.12 630.13 648.65 592.57 647.17 755.72 539.95 825.63 502.4 629.73 464.84 498.98 511.17 536.54 512.65 574.09 413.12 765.73 325.8 961.63 363.36Q961.63 363.36 961.63 363.36" opacity="0.13"></path></g></svg>